<svg xmlns="http://www.w3.org/2000/svg" width="986.24" height="208.18" viewBox="0 0 986.24 208.18">
  <defs>
    <style>
      .cls-1 {
        fill: #6900db;
      }

      .cls-2 {
        fill: #161616;
      }
    </style>
  </defs>
  <g id="Layer_2" data-name="Layer 2">
    <g id="Layer_1-2" data-name="Layer 1">
      <g>
        <path class="cls-1" d="M714.18,65.77l-.74.75A59.73,59.73,0,0,0,697.1,98.46l49-49A59.83,59.83,0,0,0,714.18,65.77Z"/>
        <path class="cls-1" d="M756.18,48.59c-1,0-1.92,0-2.87.07l-57,57c0,1-.07,1.92-.07,2.88a59.62,59.62,0,0,0,1.14,11.65l70.45-70.45A60.5,60.5,0,0,0,756.18,48.59Z"/>
        <path class="cls-1" d="M773,51l-74.35,74.35a59.74,59.74,0,0,0,4.5,11.1l81-81A59.52,59.52,0,0,0,773,51Z"/>
        <path class="cls-1" d="M816.12,108.51c0-1.61-.07-3.2-.19-4.77L865.47,54.2c-1.81-.84-3.66-1.6-5.55-2.26L744.66,167.33a59.92,59.92,0,0,0,11.52,1.11c1,0,2,0,3-.07L816,111.55C816.09,110.54,816.12,109.53,816.12,108.51Z"/>
        <path class="cls-1" d="M788.16,57.82l-82.68,82.67a60,60,0,0,0,6.79,8.81L797,64.6A60.51,60.51,0,0,0,788.16,57.82Z"/>
        <path class="cls-1" d="M811.72,85.94l36.75-36.75a59.57,59.57,0,0,0-7.24-.56l-112.86,113a59,59,0,0,0,11.13,4.48l74.26-74.27A59.15,59.15,0,0,0,811.72,85.94Z"/>
        <path class="cls-1" d="M803.68,72l21.44-21.44a59.44,59.44,0,0,0-12.7,4.9L715.48,152.5a59.4,59.4,0,0,0,8.83,6.77l82.63-82.63Q805.43,74.22,803.68,72Z"/>
        <path class="cls-1" d="M899.94,104l50.37-50.37c-.91-.4-1.83-.77-2.77-1.13L832,167.91a59.9,59.9,0,0,0,7.25.55l60.89-60.88C900.09,106.36,900,105.15,899.94,104Z"/>
        <path class="cls-1" d="M887.77,72.11l20.82-20.82a60.34,60.34,0,0,0-6.23,2.33L801.53,154.34q2.13,1.8,4.41,3.39L889.38,74.3C888.86,73.56,888.32,72.83,887.77,72.11Z"/>
        <path class="cls-1" d="M895.78,86.11,932.92,49c-1.19-.13-2.4-.23-3.61-.29L815,162.92a59.63,59.63,0,0,0,5.55,2.25l76.3-76.3C896.49,87.94,896.14,87,895.78,86.11Z"/>
        <path class="cls-1" d="M896.31,129.59,964,61.89c-.72-.58-1.46-1.14-2.21-1.69L855.36,166.53a59.37,59.37,0,0,0,12.76-5l25.1-25.1A59.13,59.13,0,0,0,896.31,129.59Z"/>
        <path class="cls-1" d="M878.88,62.78c-1.41-1.19-2.88-2.33-4.4-3.39L766.43,167.57a60.05,60.05,0,0,0,46-38.33Z"/>
        <path class="cls-1" d="M973.06,71l-84.27,84.27c.72.58,1.45,1.14,2.2,1.69l83.76-83.76C974.2,72.41,973.64,71.67,973.06,71Z"/>
        <path class="cls-1" d="M950.53,163.39l30.71-30.7a60.79,60.79,0,0,0,2.35-6.25l-39.31,39.3A57.76,57.76,0,0,0,950.53,163.39Z"/>
        <path class="cls-1" d="M986,102.06,919.9,168.12c1.2.13,2.4.22,3.62.28l62.72-62.72C986.18,104.46,986.09,103.26,986,102.06Z"/>
        <path class="cls-1" d="M981.36,84.65l-78.87,78.87c.92.39,1.84.77,2.78,1.12l77.21-77.21C982.13,86.49,981.76,85.57,981.36,84.65Z"/>
      </g>
      <g>
        <path class="cls-2" d="M65,48.59c-17.16,0-31.34,5.94-41.18,16.24v-13H0V204.15H23.79V152.22c9.84,10.29,24,16.24,41.18,16.24,29.74,0,56.28-24,56.28-59.94C121.25,72.84,94.71,48.59,65,48.59Zm-3.89,98.82c-18.76,0-37.29-14.86-37.29-38.89,0-23.79,18.53-38.89,37.29-38.89,20.82,0,37.06,15.1,37.06,38.89C98.14,132.55,81.9,147.41,61.08,147.41Z"/>
        <rect class="cls-2" x="133.39" width="23.79" height="165.26"/>
        <path class="cls-2" d="M226.37,48.59c-32,0-58.79,24-58.79,60.16,0,35.92,27,59.71,57.88,59.71,25.16,0,45.29-11.9,54.67-35.69l-21.27-4.57c-8,16-20.82,19.67-33.4,19.67-16.7,0-32-12.58-34.32-33.63h92V106C282,71.92,256.8,48.59,226.37,48.59ZM191.83,97.31c3.66-18.3,19.67-27.68,34.54-27.68,15.56,0,28.6,9.15,32.26,27.68Z"/>
        <path class="cls-2" d="M391.67,64.28C381.6,54,367.65,48,350.49,48,321,48,294.21,72.29,294.21,108c0,35.92,26.77,59.94,56.28,59.94,17.16,0,31.11-5.95,41.18-16v12.81h24V0h-24Zm-37.29,82.59c-20.59,0-36.83-14.87-36.83-38.89,0-23.79,16.24-38.89,36.83-38.89,19,0,37.29,15.1,37.29,38.89C391.67,132,373.37,146.87,354.38,146.87Z"/>
        <path class="cls-2" d="M521.82,51.25V62.46c-8.69-9.16-21.73-14.19-39.12-14.19-29.05,0-55.59,23.11-55.59,54.68s26.54,55.13,55.59,55.13c17.39,0,30.43-5,39.12-14.18v7.32c0,22-14.18,35.46-35.69,35.46-16.79,0-26.07-5.93-34.09-17.41l-17.52,17.52c10.11,13.43,27.68,21.39,51.61,21.39,35.46,0,58.79-19.67,58.79-53.53V51.25Zm-35.23,86.24c-20.36,0-36.38-13.73-36.38-34.54,0-21,16-34.55,36.38-34.55,18.53,0,35.23,13.5,35.23,34.55C521.82,123.76,505.12,137.49,486.59,137.49Z"/>
        <path class="cls-2" d="M672.39,106c-1.15-34.09-26.31-57.42-56.74-57.42-32,0-58.79,24-58.79,60.16,0,35.92,27,59.71,57.88,59.71,25.16,0,45.29-11.9,54.67-35.69l-21.27-4.57c-8,16-20.82,19.67-33.4,19.67-16.7,0-32-12.58-34.32-33.63h92Zm-91.28-8.7c3.66-18.3,19.67-27.68,34.54-27.68,15.56,0,28.6,9.15,32.26,27.68Z"/>
      </g>
    </g>
  </g>
</svg>
